<svg viewBox="0 0 200 200" xmlns="http://www.w3.org/2000/svg"><path d="m0 0h200v200h-200z" fill="#196848"/><path d="m0 200v-200h200z" fill="#f47b67"/><path d="m84.21 135.54s16.54-.8 22.86-9.59 6.46-22.08 10.89-21.86 7.34 9.37 5.23 14.89a38.16 38.16 0 0 0 -2.32 10.67h17.13s5.3.08 5.45 4.58-1.38 4.36-1.38 6.61 2.68 2.18 2.68 5.81-3 4.18-3 6.67 1.16 2.84 1.16 5.1-4.5 4.79-4.5 6.46.94 8.86-6.61 8.86h-20.05c-4.47 0-7.14-6.78-13.28-6.78h-14.47z" fill="#f47b67"/><path d="m156 117h-20.47v-4l9.66-10.3a23.4 23.4 0 0 0 2.94-3.79 6.06 6.06 0 0 0 1-3.08 4.55 4.55 0 0 0 -1-3.12 3.63 3.63 0 0 0 -2.87-1.14 3.92 3.92 0 0 0 -3.26 1.33 5.52 5.52 0 0 0 -1.16 3.64h-5.95a9.75 9.75 0 0 1 1.31-5 9.17 9.17 0 0 1 3.72-3.54 11.21 11.21 0 0 1 5.39-1.28q4.62 0 7.17 2.22a7.83 7.83 0 0 1 2.52 6.27 10 10 0 0 1 -1.15 4.51 24.64 24.64 0 0 1 -3.93 5.35l-6.79 7.16h12.87z" fill="#f47b67"/><path d="m178.88 104.66q0 6.2-2.56 9.48t-7.51 3.28a9 9 0 0 1 -7.46-3.22c-1.72-2.15-2.6-5.22-2.65-9.23v-5.49q0-6.26 2.6-9.5a10.26 10.26 0 0 1 14.94 0q2.58 3.21 2.64 9.22zm-5.92-6a10.89 10.89 0 0 0 -1-5.41 3.42 3.42 0 0 0 -3.17-1.69 3.37 3.37 0 0 0 -3.08 1.61 10.12 10.12 0 0 0 -1.06 5v7.27a11.42 11.42 0 0 0 1 5.43 3.37 3.37 0 0 0 3.18 1.77 3.34 3.34 0 0 0 3.14-1.7 11.3 11.3 0 0 0 1-5.22z" fill="#f47b67"/><g fill="#196848"><path d="m30.26 117.55h-5.93v-22.84l-7.07 2.19v-4.82l12.36-4.43h.64z"/><path d="m55.86 105.21q0 6.18-2.57 9.47t-7.5 3.32a9 9 0 0 1 -7.47-3.22c-1.72-2.15-2.6-5.22-2.64-9.23v-5.55q0-6.26 2.59-9.5a9 9 0 0 1 7.48-3.24 9 9 0 0 1 7.46 3.21c1.72 2.14 2.61 5.21 2.65 9.22zm-5.93-6a10.91 10.91 0 0 0 -1-5.41 3.41 3.41 0 0 0 -3.16-1.69 3.37 3.37 0 0 0 -3.09 1.61 10.26 10.26 0 0 0 -1.06 5v7.28a11.42 11.42 0 0 0 1 5.43 3.38 3.38 0 0 0 3.19 1.77 3.32 3.32 0 0 0 3.13-1.7 11.17 11.17 0 0 0 1-5.22z"/><path d="m79.11 105.21q0 6.18-2.56 9.47t-7.55 3.32a9 9 0 0 1 -7.46-3.22c-1.72-2.15-2.61-5.22-2.65-9.23v-5.55q0-6.26 2.6-9.5a9 9 0 0 1 7.51-3.22 9 9 0 0 1 7.47 3.21q2.58 3.21 2.64 9.22zm-5.92-6a10.91 10.91 0 0 0 -1-5.41 3.42 3.42 0 0 0 -3.19-1.74 3.37 3.37 0 0 0 -3.08 1.61 10.14 10.14 0 0 0 -1.06 5v7.33a11.56 11.56 0 0 0 1 5.43 3.4 3.4 0 0 0 3.14 1.75 3.34 3.34 0 0 0 3.14-1.7 11.3 11.3 0 0 0 1-5.22z"/><path d="m86.2 25.07c-9.51 0-8 5.42-13.61 5.42h-13.75c-5.55 0-4.09-5.42-13.61-5.42s-22.08 11.69-22.08 38.41c0 16.65 5.21 18.53 8.2 18.53 7.43 0 15.13-15.56 20.2-15.56h28.33c5.12 0 12.78 15.55 20.21 15.55 3 0 8.19-1.88 8.19-18.53 0-26.71-12.57-38.4-22.08-38.4zm-32.46 25.24a.71.71 0 0 1 -.74.69h-6.6v6.62a.71.71 0 0 1 -.71.72h-3.69a.71.71 0 0 1 -.71-.72v-6.62h-6.61a.71.71 0 0 1 -.71-.71v-3.65a.71.71 0 0 1 .71-.71h6.63v-6.63a.71.71 0 0 1 .71-.71h3.67a.71.71 0 0 1 .71.71v6.63h6.6a.71.71 0 0 1 .71.71zm24 3.38a4.11 4.11 0 1 1 4.11-4.11 4.11 4.11 0 0 1 -4.14 4.11zm8.69 8.69a4.11 4.11 0 1 1 4.11-4.11 4.11 4.11 0 0 1 -4.14 4.11zm-.03-17.38a4.11 4.11 0 1 1 4.11-4.11 4.11 4.11 0 0 1 -4.11 4.11zm8.69 8.69a4.11 4.11 0 1 1 4.11-4.11 4.11 4.11 0 0 1 -4.11 4.11z"/></g><path d="m185 15v170h-170v-170zm15-15h-200v200h200z" fill="#eecea8"/></svg>